<?xml version="1.0" encoding="UTF-8"?>
<svg id="Layer_1" data-name="Layer 1" xmlns="http://www.w3.org/2000/svg" viewBox="0 0 337.57 265.79">
  <defs>
    <style>
      .cls-1 {
        fill: #fff;
        stroke-width: 0px;
      }
    </style>
  </defs>
  <path class="cls-1" d="M337.57,232.46c-2.31,5.62-3.81,11.77-7.08,16.77-7.52,11.51-18.77,16.62-32.53,16.56-23.73-.11-47.45-.03-71.18-.03-62.17,0-124.34-.03-186.51.02-15.19.01-26.93-6.14-35.05-18.96C1.35,240.72,0,233.88,0,226.7c.04-32.29.02-64.59.02-96.88C.03,109.39-.04,88.96.05,68.53c.08-18.08,12.44-33.56,29.83-37.37,3.29-.72,6.75-.93,10.14-.95,15.6-.1,31.2-.04,46.79-.04h3.25c1.28-4.59,1.9-9.15,3.79-13.09C99.38,5.56,109.06.13,121.67.1c31.41-.09,62.83-.18,94.24.04,15.13.11,25.76,8.47,29.54,22.44.62,2.31.78,4.75,1.22,7.6h3.44c15.93,0,31.85-.03,47.78,0,20.39.04,34.99,12.01,39.17,32.04.06.29.33.54.5.81v169.43h.01ZM168.85,248.79c42.62,0,85.24.02,127.86-.04,2.83,0,5.75-.18,8.47-.9,10.03-2.67,15.74-11.14,15.74-23.08.02-51.52.02-103.04-.03-154.55,0-2.5-.22-5.08-.85-7.49-2.53-9.61-10.5-15.46-21.1-15.49-19.99-.06-39.98,0-59.98-.03-5.88,0-9.43-3.57-9.52-9.39-.04-2.97.07-5.94-.05-8.9-.3-7.13-5.05-12.03-12.18-12.05-32.18-.09-64.37-.04-96.55-.04-.22,0-.44.02-.66.03-6.21.41-10.72,4.63-11.3,10.79-.27,2.83-.2,5.7-.22,8.56-.06,7.8-3.22,11.01-10.92,11.02-19.55,0-39.11-.06-58.66.02-12.99.06-21.79,8.76-21.8,21.71-.06,52.73-.06,105.45.07,158.18,0,3.29.72,6.87,2.13,9.83,4.08,8.58,11.51,11.84,20.71,11.83,42.95-.02,85.9,0,128.85,0h0Z"/>
  <path class="cls-1" d="M168.97,69.04c43.51.26,78.74,35.58,78.78,78.99.04,43.42-35.95,79.29-79.15,78.89-43.72-.41-78.73-35.5-78.77-78.94-.04-43.45,35.8-79.19,79.13-78.93h0ZM230.33,148.65c.06-34.43-27.23-61.88-61.54-61.91-34.09-.03-61.48,27.39-61.53,61.58-.05,34.06,27.53,61.66,61.56,61.62,33.99-.04,61.44-27.4,61.51-61.29Z"/>
  <path class="cls-1" d="M282.9,100.07c-8.68-.05-15.74-7.22-15.57-15.81.17-8.59,7.08-15.4,15.65-15.42,8.72-.02,15.73,6.97,15.71,15.66-.02,8.69-7.04,15.62-15.79,15.57h0Z"/>
</svg>