<?xml version="1.0" encoding="UTF-8"?>
<svg id="Layer_1" data-name="Layer 1" xmlns="http://www.w3.org/2000/svg" viewBox="0 0 384 342.39">
  <defs>
    <style>
      .cls-1 {
        fill: #fff;
        stroke-width: 0px;
      }
    </style>
  </defs>
  <path class="cls-1" d="M0,140.5c2.37-2.47,4.43-5.37,7.15-7.36C66.03,89.91,124.99,46.77,183.94,3.63c6.59-4.83,9.59-4.83,16.15-.03,59.35,43.44,118.7,86.88,177.99,130.41,2.31,1.7,3.96,4.31,5.92,6.5v5.25c-4.6,8.63-10.17,9.83-18.15,3.98-56.94-41.71-113.9-83.4-170.79-125.18-2.34-1.72-3.77-1.69-6.08,0-56.9,41.77-113.86,83.46-170.81,125.16C10.17,155.57,4.58,154.35,0,145.76v-5.25h0Z"/>
  <path class="cls-1" d="M62.27,322.33c1.51.07,2.73.19,3.94.19,23.87.01,47.74-.07,71.61.09,3.52.02,4.36-1.03,4.34-4.42-.13-26.87-.11-53.75-.06-80.62.05-24.67,14.82-44.28,37.67-50.18,29.65-7.65,59.94,13.75,61.71,44.25.91,15.57.35,31.24.4,46.86.04,13.5.02,27,0,40.5,0,2.02-.04,3.58,2.84,3.57,25.12-.09,50.24-.07,75.36-.08.36,0,.72-.14,1.64-.34v-156.85c0-7.43,4.2-11.91,10.67-11.5,4.44.28,8.08,3.37,8.91,7.74.3,1.58.36,3.23.36,4.85.02,54.37.02,108.75.01,163.12,0,9.51-3.36,12.86-12.84,12.86h-94.48c-8.95,0-12.39-3.47-12.39-12.48,0-31.12.06-62.25-.03-93.37-.04-16.83-12.47-30-28.66-30.67-17.13-.71-31.16,12.78-31.21,30.35-.11,31.5.04,63-.15,94.5-.02,2.89-1.05,6.36-2.88,8.47-1.61,1.86-4.98,3.06-7.58,3.08-32.87.2-65.74.15-98.61.11-6.21,0-9.98-3.7-10.48-9.89-.09-1.12-.06-2.25-.06-3.37v-161.99c0-1.62,0-3.26.24-4.86.76-5.23,4.96-8.66,10.2-8.45,4.99.2,8.94,3.92,9.43,8.96.13,1.36.07,2.75.07,4.12v155.47l.03-.02Z"/>
</svg>