<?xml version="1.0" encoding="UTF-8"?>
<svg id="Layer_1" data-name="Layer 1" xmlns="http://www.w3.org/2000/svg" viewBox="0 0 264.74 264.79">
  <defs>
    <style>
      .cls-1 {
        fill: #fff;
        stroke-width: 0px;
      }
    </style>
  </defs>
  <path class="cls-1" d="M124.64,264.79c-5.02-.67-10.08-1.12-15.05-2.06-41.84-7.94-73.13-30.68-93.76-67.81C4.06,173.75-1.28,150.72.26,126.57,3.41,77.1,26.97,40.02,70.1,15.74,91.13,3.91,114.13-1.21,138.19.24c46.92,2.83,82.96,24.57,107.79,64.43,10.96,17.6,16.84,37.03,18.32,57.75.05.75.29,1.49.44,2.23v15.51c-.15.74-.39,1.48-.44,2.23-1.3,18.55-6.22,36.13-15.24,52.35-20.68,37.2-51.96,60.02-93.88,67.98-4.97.94-10.03,1.38-15.04,2.06h-15.51,0ZM11.49,132.42c.01,66.55,54.27,120.84,120.84,120.91,66.49.07,120.8-54.17,120.96-120.8.15-66.54-54.41-121.14-120.97-121.04-66.58.09-120.84,54.39-120.83,120.93Z"/>
  <path class="cls-1" d="M103.67,161.14h-37.98c-6.03,0-7.88-1.85-7.88-7.85v-41.87c0-5.85,1.87-7.73,7.73-7.73,11.54-.01,23.09,0,34.63,0h3.49v-38.07c0-5.88,1.88-7.78,7.68-7.79h42.12c5.69,0,7.63,1.92,7.64,7.57.02,11.63,0,23.26,0,34.89v3.4h37.9c5.85,0,7.95,2.1,7.96,7.93v41.36c0,6.42-1.73,8.17-8.07,8.18h-37.79v37.9c0,6.2-1.78,7.97-8.02,7.97h-41.61c-6,0-7.82-1.84-7.83-7.9v-37.96l.03-.03ZM115.22,69.41v37.88c0,5.89-2.03,7.93-7.9,7.93h-37.88v34.36h37.84c5.89,0,7.93,2.03,7.93,7.9v37.88h34.35v-37.84c0-5.9,2.03-7.93,7.89-7.94h38.28v-34.36h-3.17c-11.72,0-23.44.01-35.16,0-5.4,0-7.47-2.11-7.47-7.52v-38.3h-34.74.03Z"/>
</svg>