<?xml version="1.0" encoding="UTF-8"?>
<svg id="Layer_1" data-name="Layer 1" xmlns="http://www.w3.org/2000/svg" viewBox="0 0 353.79 312.3">
  <defs>
    <style>
      .cls-1 {
        fill: #fff;
        stroke-width: 0px;
      }
    </style>
  </defs>
  <path class="cls-1" d="M0,277.12V13.17C3.13,3.37,10.05-.02,20.04,0c91.31.16,182.62.09,273.94.1,1.5,0,3-.04,4.49.08,8.89.71,15.05,7.21,15.24,16.13.1,4.49.02,8.98.03,13.47v10.35c7.89,0,15.26-.03,22.62,0,10.79.06,17.41,6.67,17.41,17.5.02,71.28.05,142.55-.09,213.83,0,4.64-.76,9.48-2.24,13.87-5.65,16.82-20.83,26.97-39.65,26.97-89.93.01-179.86,0-269.79,0-1.38,0-2.76-.01-4.14-.09-16.74-.93-31.37-12.45-36.15-28.49-.65-2.18-1.14-4.41-1.71-6.61h0ZM313.73,56.28v201.78c0,4.79.47,5.31,5.63,6.55,4.09.98,6.5,4.2,6.2,8.29-.29,3.88-3.08,6.83-7.13,7.12-1.91.14-3.93-.05-5.78-.54-9.61-2.58-14.89-10.22-14.89-21.36V16.28H16.12c-.06,1.31-.16,2.43-.16,3.55,0,83.48-.02,166.96,0,250.45,0,15.8,10.11,26.04,25.86,26.05,90.05.04,180.09.04,270.14,0,15.74,0,25.84-10.26,25.84-26.06.02-70.12.01-140.25,0-210.37,0-1.21-.11-2.41-.16-3.59h-23.91v-.03Z"/>
  <path class="cls-1" d="M96.36,88.18c12.67,0,25.33-.02,38,0,7.72.01,10.55,2.88,10.56,10.67,0,25.22.02,50.43,0,75.65,0,7.64-2.98,10.55-10.72,10.56-25.22,0-50.43,0-75.65,0-7.55,0-10.51-2.9-10.52-10.37-.03-25.33-.02-50.66,0-76,0-7.82,2.75-10.49,10.69-10.51,12.55-.02,25.1,0,37.65,0h0ZM64.23,168.82h64.39v-64.32h-64.39s0,64.32,0,64.32Z"/>
  <path class="cls-1" d="M156.88,48.2c32.46,0,64.92,0,97.38,0,1.72,0,3.47,0,5.16.29,3.5.62,6.01,3.71,6.18,7.32.16,3.54-2.13,6.89-5.55,7.78-1.54.4-3.17.57-4.77.58-65.61.03-131.22.03-196.83.02-6.92,0-10.67-3.23-10.23-8.72.29-3.64,2.83-6.49,6.46-7.03,1.58-.24,3.21-.23,4.82-.24,32.46,0,64.92,0,97.38,0h0Z"/>
  <path class="cls-1" d="M216.95,144.25c-12.78,0-25.56.05-38.34-.02-6.49-.04-10.16-3.65-9.49-9.06.42-3.4,2.71-5.97,6.07-6.6,1.46-.27,2.97-.38,4.46-.38,25.1-.02,50.19-.02,75.29-.02,3.27,0,6.49.14,8.81,2.95,3.8,4.59,1.47,11.45-4.37,12.68-1.56.33-3.19.43-4.79.43-12.55.03-25.1.02-37.64.02h0Z"/>
  <path class="cls-1" d="M217.15,184.23c-12.89,0-25.79.06-38.68-.03-6.65-.05-10.24-3.86-9.25-9.51.55-3.16,2.49-5.16,5.47-5.98,1.63-.45,3.41-.53,5.12-.53,24.98-.03,49.96-.03,74.94-.02,7.13,0,10.95,2.91,10.85,8.2-.1,5.16-3.78,7.86-10.81,7.87-12.55,0-25.1,0-37.64,0h0Z"/>
  <path class="cls-1" d="M217.31,88.18c12.89,0,25.79-.04,38.68.02,5.83.02,9.14,2.63,9.55,7.3.35,3.88-2.01,7.29-5.82,8.21-1.44.34-2.95.51-4.43.52-25.33.03-50.65.07-75.98-.06-2.4-.01-5.06-.68-7.13-1.86-3-1.71-3.67-4.88-2.86-8.17.76-3.04,2.79-5,5.88-5.6,1.57-.31,3.2-.34,4.81-.34,12.43-.03,24.86-.01,37.3-.01h0Z"/>
  <path class="cls-1" d="M217.29,224.22c-12.89,0-25.79.04-38.68-.02-5.82-.02-9.14-2.65-9.54-7.31-.34-3.89,2.01-7.3,5.83-8.2,1.55-.36,3.18-.52,4.77-.52,25.09-.03,50.19-.07,75.28.06,2.52,0,5.3.66,7.48,1.87,3,1.68,3.68,4.87,2.85,8.16-.77,3.03-2.78,5.01-5.89,5.6-1.57.3-3.2.34-4.81.34-12.43.03-24.86,0-37.3,0h.01Z"/>
  <path class="cls-1" d="M96.39,264.2c-12.89,0-25.78-.02-38.68.01-3.39,0-6.4-.68-8.37-3.78-2.77-4.35-.57-10.32,4.41-11.65,1.64-.44,3.4-.56,5.11-.57,25.09-.03,50.19-.03,75.28,0,1.71,0,3.47.16,5.11.59,3.38.89,5.7,4.34,5.49,7.83-.22,3.62-2.74,6.65-6.25,7.27-1.46.26-2.98.27-4.47.28-12.55.02-25.09.01-37.64.01h0Z"/>
  <path class="cls-1" d="M217.11,264.2c-12.89,0-25.79.03-38.68-.02-5.76-.02-9.09-2.75-9.4-7.46-.24-3.74,2.06-7.04,5.71-7.98,1.32-.34,2.72-.53,4.08-.53,25.67-.03,51.34-.03,77.01,0,1.59,0,3.24.21,4.75.69,3.17,1.01,5.23,4.45,4.98,7.86-.26,3.65-2.77,6.64-6.35,7.14-2.26.32-4.59.27-6.89.27-11.74.02-23.48.01-35.22,0v.03Z"/>
  <path class="cls-1" d="M96.45,224.22c-12.89,0-25.79.03-38.68-.02-5.7-.02-8.98-2.51-9.49-6.96-.5-4.29,1.85-7.67,6.1-8.62,1.33-.3,2.73-.45,4.09-.45,25.33-.03,50.65-.03,75.98,0,6.21,0,9.52,2.33,10.17,7.05.59,4.27-2.1,8.22-6.4,8.67-3.99.42-8.04.32-12.06.33-9.9.04-19.8,0-29.7,0h-.01Z"/>
</svg>