<?xml version="1.0" encoding="UTF-8"?>
<svg id="Layer_1" data-name="Layer 1" xmlns="http://www.w3.org/2000/svg" viewBox="0 0 512 512">
  <defs>
    <style>
      .cls-1 {
        fill: #fff;
        stroke-width: 0px;
      }
    </style>
  </defs>
  <path class="cls-1" d="M0,136c1.6-5.03,2.69-10.29,4.88-15.05,10.45-22.73,28.49-34.88,53.38-35.54,24.65-.65,49.32-.24,73.99-.12,10.17.05,17.11,6.97,16.97,16.36-.14,9.18-7.02,15.54-17.13,15.57-23.33.07-46.66,0-69.99.03-19.33.02-30.08,10.72-30.08,29.95,0,100.99,0,201.97,0,302.96,0,19.03,10.72,29.83,29.61,29.83,129.65,0,259.3,0,388.95,0,18.58,0,29.43-10.88,29.43-29.51,0-58.99-.02-117.99.02-176.98,0-13.5,12.54-21.94,23.4-15.38,3.55,2.15,5.76,6.52,8.59,9.88v193c-.34,1.08-.78,2.13-1.01,3.23-3.74,17.51-12.98,31.28-28.75,39.86-6.57,3.58-14.13,5.33-21.24,7.91H51c-1.08-.34-2.13-.78-3.23-1.01-17.69-3.79-31.5-13.23-40.12-29.16-3.48-6.43-5.15-13.85-7.64-20.82,0-108.33,0-216.67,0-325Z"/>
  <path class="cls-1" d="M512,164c-3.1,4.03-5.85,8.4-9.35,12.05-43.84,45.69-87.82,91.25-131.69,136.91-4.67,4.86-9.8,8.09-16.76,6.7-8.15-1.62-12.89-8.14-12.92-17.73-.06-20.33-.02-40.66-.02-60.99,0-1.81,0-3.62,0-5.16-.62-.46-.88-.81-1.14-.82-38.2-2.04-75.13,2.27-109.2,21.44-30.43,17.12-53.92,40.97-70.35,71.78-1.09,2.05-2.11,4.18-3.46,6.06-4.03,5.6-10.91,8-17.19,6.18-6.74-1.95-11.63-7.2-11.76-13.93-.59-31.5-1.39-63.12,8.89-93.52,26.57-78.52,80.28-126.97,161.6-143.89,13.1-2.73,26.79-2.64,40.21-3.86.63-.06,1.25-.2,2.41-.39v-5.47c0-19.33.29-38.67-.12-57.99-.21-9.78,2.62-17.17,11.87-21.36,2.67,0,5.33,0,8,0,3.8,2.86,8.06,5.28,11.32,8.66,43.54,45.01,86.96,90.13,130.32,135.31,3.5,3.65,6.26,8,9.36,12.03v8ZM161.22,269.82c1.43-.4,1.81-.39,2-.58,1.31-1.28,2.57-2.61,3.85-3.91,35.26-35.72,77.82-56.68,127.78-61.26,20.01-1.83,40.26-1.06,60.41-1.28,11.96-.13,17.94,6.09,17.98,18.23.04,12.83,0,25.65.03,38.48,0,1.17.25,2.34.49,4.39,33.76-35.07,66.83-69.42,100.03-103.9-33.54-34.83-66.51-69.07-100.53-104.39,0,3.11,0,4.7,0,6.29,0,12.16.02,24.32,0,36.48-.02,13.08-5.81,18.61-18.87,18.94-14.8.38-29.89-.42-44.33,2.18-73.01,13.16-120.93,55.57-143.42,126.34-2.42,7.61-3.56,15.63-5.41,23.99Z"/>
</svg>