<?xml version="1.0" encoding="UTF-8"?>
<svg id="Layer_1" data-name="Layer 1" xmlns="http://www.w3.org/2000/svg" viewBox="0 0 347.57 428.03">
  <defs>
    <style>
      .cls-1 {
        fill: #fff;
        stroke-width: 0px;
      }
    </style>
  </defs>
  <path class="cls-1" d="M223.24,0c6.1,2.51,12.8,4.12,18.18,7.7,11.78,7.84,16.53,19.78,16.64,33.7.03,3.32,0,6.65,0,10.63,1.76,0,3.23,0,4.7,0,14.76,0,29.53-.12,44.29.03,17.66.18,30.72,7.77,37.76,24.4,7.93,18.74-1.86,41.87-20.91,49.03-3.78,1.42-4.77,3.3-4.76,7.17.12,79.65.08,159.3.1,238.95,0,12.39-2.51,24.07-9.72,34.37-9.95,14.22-23.68,21.61-41.03,21.86-14.62.21-29.25.05-43.87.05-47.63,0-95.27-.36-142.89.13-29.6.31-52.52-21.98-53.11-52.16-.49-24.92-.13-49.85-.14-74.77,0-56.53-.03-113.07.07-169.6,0-3.16-.9-4.49-3.91-5.58C8.45,120.02-1.94,102.7.3,85.87c2.4-18,16.52-32.13,34.3-33.23,12.9-.8,25.88-.46,38.82-.6,5.15-.05,10.3,0,15.8,0,.3-5.8.36-11.45.94-17.05,1.81-17.58,14.97-31.36,32.51-34.33C123.34.54,123.96.22,124.61,0c32.88,0,65.76,0,98.63,0ZM48.54,128.51v3.72c0,80.08,0,160.16.03,240.25,0,2.77.23,5.57.66,8.32,2.51,16.09,14.95,27.01,31.09,27.03,62.41.06,124.81.03,187.22.02,7.96,0,15.02-2.47,20.91-8,8.09-7.61,10.71-17.32,10.71-27.98.02-79.66.01-159.33.01-238.99,0-1.36,0-2.71,0-4.34H48.54ZM173.66,108.22c43.73,0,87.45,0,131.18-.01,2.22,0,4.46-.05,6.67-.29,8.58-.93,14.91-7.58,15.65-16.33.72-8.51-4.71-16.57-12.9-18.63-2.79-.7-5.79-.83-8.69-.83-87.87-.04-175.74-.04-263.61-.01-2.22,0-4.46.12-6.65.46-8.16,1.27-14.08,7.76-14.94,16.22-.8,7.76,4.17,15.74,11.84,18.17,3.11.98,6.56,1.21,9.86,1.22,43.87.08,87.73.05,131.6.05ZM237.71,51.81c0-5.15.39-9.89-.08-14.55-.98-9.82-8.57-17.05-18.4-17.11-30.23-.19-60.45-.17-90.68,0-9.38.05-17,6.55-18.35,15.76-.75,5.13-.13,10.46-.13,15.91h127.65Z"/>
  <path class="cls-1" d="M124.67,259.96c0,30.21,0,60.41,0,90.62,0,1.39.05,2.79-.07,4.17-.49,5.41-4.2,9.21-9.29,9.58-4.96.36-9.22-3.06-10.29-8.39-.3-1.48-.37-3.03-.37-4.55-.02-61.11-.02-122.21-.01-183.32,0-8.54,3.93-13.21,10.69-12.82,5.28.3,9,4.15,9.28,9.92.19,4.03.06,8.07.07,12.11,0,27.56,0,55.12,0,82.68Z"/>
  <path class="cls-1" d="M163.83,259.44c0-30.76-.01-61.52.01-92.28,0-7.17,3.28-11.38,9.04-11.87,5.16-.44,9.27,2.44,10.43,7.52.43,1.87.56,3.85.56,5.78.03,60.83.03,121.65,0,182.48,0,1.93-.16,3.9-.6,5.77-1.05,4.44-4.9,7.44-9.32,7.52-4.39.07-8.42-2.86-9.54-7.27-.47-1.85-.55-3.85-.56-5.78-.03-30.62-.02-61.24-.02-91.87Z"/>
  <path class="cls-1" d="M222.99,259.92c0-30.48,0-60.96,0-91.45,0-8.64,3.37-13.19,9.8-13.28,6.56-.1,10.25,4.68,10.26,13.36,0,60.82,0,121.65,0,182.47,0,8.51-3.51,13.19-9.92,13.33-6.55.14-10.14-4.59-10.14-13.41,0-30.34,0-60.69,0-91.03Z"/>
</svg>