<?xml version="1.0" encoding="UTF-8"?>
<svg id="Layer_1" data-name="Layer 1" xmlns="http://www.w3.org/2000/svg" viewBox="0 0 192 76.9">
  <defs>
    <style>
      .cls-1 {
        fill: #fff;
        stroke-width: 0px;
      }
    </style>
  </defs>
  <path class="cls-1" d="M0,37.3c1.04-1.64,2.55-2.21,4.44-2.1,1.68.09,3.36.02,5.23.02,1.37-11.7,6.62-21.15,16.16-28.02C32.42,2.46,39.82.23,47.93.03c14.12-.34,32.6,8.94,37.8,30.35,8.84-5.02,11.3-5.02,20.6,0C110.79,11.21,127.69.07,144.22,0c16.46-.07,34.32,12.02,37.77,32.04,2.08,0,4.19-.02,6.3,0,2.24.02,3.66,1.23,3.71,3.1.05,1.94-1.43,3.25-3.73,3.28-1.87.02-3.74,0-5.64,0-.36,2.68-.55,5.29-1.07,7.84-3.69,17.97-19.6,30.81-37.73,30.53-18.67-.29-34.42-13.58-37.61-31.74-.17-.98-.4-1.98-.38-2.97.08-4.37-2.99-6.41-6.21-8.1-3.24-1.71-6.46-.98-9.3,1.2-2.36,1.82-3.91,3.89-4.25,7.23-1.83,18.04-15.49,31.83-33.45,34.17-20.21,2.64-39.69-12.25-42.55-32.52-.1-.73-.25-1.46-.42-2.43-1.75,0-3.48-.07-5.21.02-1.9.1-3.4-.47-4.45-2.11v-2.25ZM48.17,70.39c17.84.05,31.75-13.91,31.79-31.89.04-17.99-13.76-31.98-31.62-32.05-17.79-.07-32.2,14.12-32.3,31.79-.1,17.74,14.25,32.1,32.13,32.14ZM175.97,38.41c-.01-17.99-13.86-31.94-31.72-31.95-17.8,0-32.16,14.21-32.2,31.89-.04,17.74,14.36,32.06,32.23,32.05,17.84-.01,31.7-14,31.69-31.98Z"/>
</svg>